<?xml version="1.0" encoding="iso-8859-1"?>
<!-- Uploaded to: SVG Repo, www.svgrepo.com, Generator: SVG Repo Mixer Tools -->
<!DOCTYPE svg PUBLIC "-//W3C//DTD SVG 1.1//EN" "http://www.w3.org/Graphics/SVG/1.1/DTD/svg11.dtd">
<svg fill="orange" height="800px" width="800px" version="1.1" id="Capa_1" xmlns="http://www.w3.org/2000/svg" xmlns:xlink="http://www.w3.org/1999/xlink" 
	 viewBox="0 0 491.275 491.275" xml:space="preserve">
<g>
	<path d="M185.17,73.788c6.128,3.636,13.115,5.558,20.206,5.558c13.952,0,27.038-7.446,34.15-19.435
		c11.158-18.81,4.933-43.193-13.877-54.354C219.52,1.922,212.533,0,205.443,0c-13.952,0-27.037,7.446-34.149,19.435
		c-5.406,9.112-6.94,19.785-4.319,30.052C169.595,59.752,176.057,68.383,185.17,73.788z M178.604,23.771
		C184.192,14.352,194.476,8.5,205.443,8.5c5.565,0,11.052,1.51,15.868,4.367c14.779,8.769,19.671,27.928,10.904,42.707
		c-5.588,9.42-15.873,15.272-26.839,15.272c-5.565,0-11.052-1.51-15.869-4.368c-7.16-4.247-12.237-11.028-14.296-19.094
		C173.151,39.317,174.356,30.932,178.604,23.771z"/>
	<path d="M339.399,195.734c3.777,0,7.546-0.544,11.201-1.618c10.165-2.987,18.559-9.754,23.634-19.055
		c5.076-9.301,6.226-20.021,3.238-30.188c-4.93-16.775-20.574-28.491-38.044-28.491c-3.776,0-7.544,0.544-11.199,1.618
		c-20.985,6.168-33.04,28.258-26.872,49.241C306.286,184.019,321.929,195.734,339.399,195.734z M330.626,126.156
		c2.876-0.846,5.837-1.274,8.802-1.274c13.724,0,26.015,9.206,29.889,22.388c2.348,7.987,1.444,16.411-2.544,23.719
		c-3.988,7.308-10.583,12.625-18.57,14.972c-2.876,0.845-5.838,1.273-8.804,1.273c-13.724,0-26.013-9.206-29.886-22.389
		C304.666,148.358,314.138,131.002,330.626,126.156z"/>
	<path d="M482.542,211.829c-3.489-4.162-8.39-6.717-13.799-7.191l-92.357-8.133c-7.694-2.73-16.025-2.984-24.012-0.638
		c-5.107,1.501-9.74,3.955-13.8,7.305l-76.595-14.416c-0.792-0.149-1.594-0.233-2.396-0.288c0.914-1.933,1.539-4.012,1.81-6.195
		c0.669-5.39-0.799-10.716-4.136-14.999l-56.975-73.151c-0.706-0.906-1.508-1.764-2.393-2.562
		c-3.242-7.503-8.736-13.781-15.902-18.032c-13.299-7.889-30.182-7.07-42.672,1.855L68.227,61.131
		c-1.323-0.266-2.673-0.399-4.012-0.399c-9.641,0-18.017,6.869-19.914,16.334c-2.204,10.988,4.944,21.722,15.935,23.929
		l53.642,10.755l-36.629,61.744c-4.866,8.201-6.542,17.766-4.792,27.103L15.013,314.591c-3.192,6.333-3.727,13.53-1.505,20.266
		c2.222,6.734,6.933,12.201,13.266,15.392c0.218,0.109,0.44,0.206,0.66,0.31h-5.986c-9.631,0-17.466,7.834-17.466,17.464v100.304
		c0,9.63,7.835,17.464,17.466,17.464h150.661c9.631,0,17.466-7.835,17.466-17.466V368.022c0-9.63-7.835-17.464-17.466-17.464h-1.369
		c2.746-2.293,5.023-5.141,6.682-8.432c3.191-6.333,3.725-13.53,1.503-20.266l-35.333-107.122c0.295-0.453,0.594-0.904,0.872-1.372
		l42.009-70.814l38.712,49.704c3.337,4.285,8.142,7.014,13.529,7.684c0.378,0.047,0.756,0.08,1.133,0.105
		c-0.728,1.541-1.277,3.189-1.605,4.927c-1.005,5.336,0.128,10.743,3.19,15.226c3.062,4.482,7.688,7.504,13.023,8.508l70.876,13.339
		l31.36,107.102l-50.38,99.976c-3.192,6.334-3.726,13.531-1.504,20.267c2.222,6.735,6.934,12.202,13.267,15.393
		c3.748,1.889,7.763,2.847,11.934,2.847c10.096,0,19.187-5.598,23.727-14.609l39.924-79.228l26.137,79.236
		c2.221,6.735,6.933,12.203,13.266,15.395c3.762,1.897,7.829,2.854,11.923,2.854c2.798,0,5.609-0.448,8.344-1.35
		c13.903-4.587,21.483-19.63,16.898-33.532l-39.891-120.938c0.821-5.478,0.494-11.208-1.164-16.852l-23.15-78.775l59.162,5.305
		c0.61,0.054,1.217,0.081,1.822,0.081c4.761,0,9.328-1.654,13.02-4.748c4.162-3.487,6.715-8.388,7.19-13.797
		C487.689,221.262,486.03,215.99,482.542,211.829z M52.635,78.737c1.104-5.509,5.975-9.506,11.58-9.506
		c0.78,0,1.567,0.078,2.341,0.233l90.906,18.228c6.394,1.282,10.553,7.527,9.271,13.923c-1.105,5.507-5.974,9.504-11.578,9.504
		c-0.781,0-1.57-0.079-2.345-0.234L61.907,92.66C55.512,91.376,51.353,85.131,52.635,78.737z M22.604,318.416l57.874-114.851
		c3.087-6.127,9.27-9.933,16.137-9.933c2.83,0,5.559,0.651,8.109,1.937c4.305,2.169,7.507,5.885,9.018,10.465
		c1.51,4.579,1.147,9.473-1.023,13.778l-57.875,114.85c-3.087,6.127-9.271,9.934-16.137,9.934c-2.83,0-5.558-0.652-8.107-1.936
		c-0.186-0.094-0.359-0.207-0.542-0.307l34.416-62.847c1.127-2.059,0.373-4.642-1.686-5.769c-2.059-1.126-4.641-0.372-5.769,1.686
		l-33.396,60.983c-0.846-1.298-1.544-2.703-2.042-4.214C20.071,327.615,20.434,322.723,22.604,318.416z M181.075,368.022v86.684
		H95.611c-2.347,0-4.25,1.902-4.25,4.25c0,2.348,1.903,4.25,4.25,4.25h85.464v5.118c0,4.943-4.022,8.966-8.966,8.966H21.448
		c-4.944,0-8.966-4.022-8.966-8.964V368.022c0-4.942,4.022-8.964,8.966-8.964h150.661
		C177.053,359.059,181.075,363.08,181.075,368.022z M50.057,350.559c5.257-2.475,9.645-6.648,12.377-12.072l40.03-79.436
		l26.031,79.444c1.577,4.783,4.415,8.921,8.193,12.064H50.057z M169.831,338.302c-2.169,4.305-5.886,7.508-10.466,9.019
		c-4.58,1.51-9.473,1.147-13.779-1.022c-4.306-2.169-7.509-5.886-9.019-10.466l-28.799-87.309l8.247-16.366
		c7.95-1.063,15.303-4.533,21.13-9.828l33.707,102.194C172.363,329.103,172.001,333.996,169.831,338.302z M137.154,209.031
		c-3.71,6.255-9.49,10.891-16.207,13.241c2.614-5.99,2.932-12.645,0.868-18.901c-2.221-6.735-6.932-12.202-13.265-15.393
		c-3.748-1.888-7.763-2.845-11.934-2.845c-6.01,0-11.654,1.995-16.204,5.501c0.406-4.479,1.798-8.846,4.147-12.804l38.151-64.311
		l28.429,5.699c1.324,0.266,2.675,0.4,4.017,0.4c9.639,0,18.014-6.868,19.912-16.333c2.203-10.991-4.945-21.726-15.935-23.928
		l-6.445-1.293c8.189-2.611,17.33-1.754,24.962,2.773c7.025,4.167,12.006,10.82,14.026,18.733
		c2.021,7.913,0.838,16.139-3.329,23.162L137.154,209.031z M231.891,187.034l-40.76-52.333l4.526-7.63
		c3.313-5.583,5.148-11.762,5.441-18.067l49.452,63.493c1.941,2.492,2.796,5.591,2.406,8.727c-0.39,3.136-1.977,5.933-4.471,7.874
		c-2.492,1.943-5.591,2.801-8.724,2.408C236.628,191.116,233.833,189.528,231.891,187.034z M248.45,215.403
		c-1.781-2.607-2.44-5.753-1.855-8.857c1.052-5.588,5.935-9.643,11.61-9.643c0.733,0,1.475,0.069,2.202,0.206l91.107,17.147
		c3.104,0.584,5.794,2.342,7.575,4.95c1.781,2.607,2.44,5.754,1.856,8.857c-1.053,5.587-5.933,9.642-11.604,9.642
		c-0.735,0-1.478-0.07-2.21-0.208l-91.105-17.145C252.922,219.769,250.231,218.011,248.45,215.403z M346.143,469.194
		c-3.087,6.127-9.27,9.934-16.136,9.934c-2.83,0-5.558-0.651-8.108-1.936c-0.088-0.044-0.169-0.1-0.256-0.146
		c0.31-0.291,0.585-0.629,0.803-1.021l43.499-77.996c1.143-2.05,0.408-4.639-1.642-5.782c-2.049-1.142-4.638-0.407-5.782,1.642
		l-43.265,77.578c-1.008-1.436-1.811-3.028-2.376-4.741c-1.511-4.578-1.148-9.472,1.023-13.778l57.875-114.851
		c3.087-6.127,9.271-9.933,16.137-9.933c2.83,0,5.558,0.651,8.108,1.936c4.306,2.17,7.508,5.887,9.019,10.466
		c1.51,4.579,1.147,9.473-1.023,13.778L346.143,469.194z M462.153,459.056c3.118,9.452-2.036,19.68-11.488,22.798
		c-4.581,1.511-9.473,1.147-13.779-1.023c-4.306-2.17-7.509-5.887-9.019-10.466l-28.799-87.309l9.069-17.997
		c7.689-3.553,13.734-9.34,17.637-16.296L462.153,459.056z M414.123,350.416c0.668-4.143,0.343-8.413-1.009-12.513
		c-2.221-6.735-6.933-12.203-13.266-15.395c-3.747-1.888-7.762-2.845-11.933-2.845c-10.095,0-19.188,5.598-23.728,14.608
		l-1.901,3.772l-27.701-94.259l10.974,2.065c1.248,0.235,2.521,0.355,3.783,0.355c9.755,0,18.148-6.968,19.957-16.568
		c1.004-5.335-0.128-10.742-3.19-15.225c-3.062-4.483-7.687-7.506-13.022-8.51l-2.242-0.422c1.266-0.567,2.572-1.061,3.926-1.459
		c7.836-2.305,16.101-1.418,23.269,2.495c7.168,3.912,12.384,10.382,14.686,18.218l28.29,96.266
		C424.151,331.671,421.242,342.747,414.123,350.416z M478.745,225.926c-0.276,3.148-1.761,5.998-4.182,8.026
		c-2.421,2.028-5.488,2.989-8.636,2.715l-62.453-5.498l-2.595-8.83c-1.785-6.076-4.949-11.504-9.202-15.955l76.32,6.721
		c3.148,0.276,5.999,1.763,8.03,4.185C478.058,219.711,479.023,222.777,478.745,225.926z"/>
	<path d="M26.248,395.709h122.994c2.347,0,4.25-1.902,4.25-4.25c0-2.348-1.903-4.25-4.25-4.25H26.248c-2.347,0-4.25,1.902-4.25,4.25
		C21.998,393.807,23.901,395.709,26.248,395.709z"/>
</g>
</svg>